PathFileType	4	(X/Y/Z)	/Users/itak/Documents/Research/Walk-IL/dataset/trc/00187_00008.trc
DataRate	CameraRate	NumFrames	NumMarkers	Units	OrigDataRate	OrigDataStartFrame	OrigNumFrames
100.000000	100.000000	4	53	mm	100.000000	478	766
Frame#	Time	RPSI			LPSI			L3			STRN			T10			C7			CLAV			RBAK			LBAK			LSHO			LUPA			LAEL			LAOL			LWTS			LWPS			LFRA			LIFD			LHPS			LHTS			RSHO			RUPA			RAEL			RAOL			RWTS			RWPS			RFRA			RIFD			RHTS			RHPS			RBHD			LFHD			RFHD			LBHD			LHIP			RHIP			RASI			LASI			LKNE			LTHI			LANK			LTIP			LTOE			LMT1			LMT5			LHEE			RKNE			RTHI			RANK			RTIP			RTOE			RMT1			RMT5			RHEE			
		X1	Y1	Z1	X2	Y2	Z2	X3	Y3	Z3	X4	Y4	Z4	X5	Y5	Z5	X6	Y6	Z6	X7	Y7	Z7	X8	Y8	Z8	X9	Y9	Z9	X10	Y10	Z10	X11	Y11	Z11	X12	Y12	Z12	X13	Y13	Z13	X14	Y14	Z14	X15	Y15	Z15	X16	Y16	Z16	X17	Y17	Z17	X18	Y18	Z18	X19	Y19	Z19	X20	Y20	Z20	X21	Y21	Z21	X22	Y22	Z22	X23	Y23	Z23	X24	Y24	Z24	X25	Y25	Z25	X26	Y26	Z26	X27	Y27	Z27	X28	Y28	Z28	X29	Y29	Z29	X30	Y30	Z30	X31	Y31	Z31	X32	Y32	Z32	X33	Y33	Z33	X34	Y34	Z34	X35	Y35	Z35	X36	Y36	Z36	X37	Y37	Z37	X38	Y38	Z38	X39	Y39	Z39	X40	Y40	Z40	X41	Y41	Z41	X42	Y42	Z42	X43	Y43	Z43	X44	Y44	Z44	X45	Y45	Z45	X46	Y46	Z46	X47	Y47	Z47	X48	Y48	Z48	X49	Y49	Z49	X50	Y50	Z50	X51	Y51	Z51	X52	Y52	Z52	X53	Y53	Z53	

479	4.78	-897.9342651367188	1058.1923828125	-431.4617614746094	-790.8905029296875	1051.245239257812	-372.9140625	-844.4750366210938	1092.692016601562	-402.9279174804688	-962.279541015625	1301.549072265625	-165.7932434082031	-814.99267578125	1251.798461914062	-428.6716613769531	-834.8065795898438	1519.76318359375	-358.62646484375	-938.9732055664062	1415.195190429688	-184.7130584716797	-896.9414672851562	1347.265625	-474.7469787597656	-744.8717041015625	1497.26611328125	-315.7432556152344	-716.00048828125	1483.083374023438	-210.0425415039062	-627.6588745117188	1357.937377929688	-212.4839630126953	-595.6517944335938	1143.860595703125	-213.3953704833984	-638.349609375	1131.046142578125	-290.9732055664062	-650.4352416992188	899.7412109375	-144.8494873046875	-578.5109252929688	890.5397338867188	-202.00537109375	-578.1569213867188	1034.838256835938	-203.4407501220703	-656.0468139648438	712.912353515625	-159.3699188232422	-583.9454345703125	819.3670654296875	-190.4009857177734	-629.76318359375	820.6314697265625	-133.9646301269531	-1019.831665039062	1504.421630859375	-395.5022277832031	-1066.460571289062	1443.480834960938	-452.7537536621094	-1116.521240234375	1168.588745117188	-531.2318725585938	-1037.755859375	1148.274047851562	-477.8515625	-1211.693725585938	945.3468017578125	-417.9365844726562	-1200.94140625	928.6585693359375	-505.3993530273438	-1153.642456054688	1097.8154296875	-526.440673828125	-1218.576049804688	757.9880981445312	-394.1073608398438	-1245.36181640625	853.9771118164062	-405.43310546875	-1225.37060546875	847.4896240234375	-483.7051086425781	-945.6312255859375	1687.501953125	-323.2013854980469	-853.5214233398438	1712.069580078125	-127.1455612182617	-978.1241455078125	1722.860229492188	-153.6753692626953	-810.6548461914062	1684.83984375	-300.0535888671875	-728.6261596679688	981.190673828125	-232.3693695068359	-1080.074462890625	1022.951843261719	-351.1452331542969	-1066.552124023438	1046.898315429688	-253.9359283447266	-832.957763671875	1025.664672851562	-143.8556365966797	-822.8303833007812	480.0255737304688	-136.1704559326172	-791.7933349609375	625.47509765625	-152.9526824951172	-699.2627563476562	225.6392059326172	-516.5485229492188	-757.4329223632812	340.5674438476562	-312.5507202148438	-781.9736328125	63.13946151733398	-400.0990295410156	-806.6785278320312	98.21041870117188	-451.8736572265625	-692.1713256835938	140.9637756347656	-440.0128173828125	-747.3935546875	264.785888671875	-574.3966064453125	-1107.847900390625	522.9239501953125	-262.171875	-1128.134033203125	796.2501831054688	-284.4020080566406	-1083.924682617188	31.13474273681641	-348.4668273925781	-1104.752075195312	398.5394897460938	-244.4678497314453	-1149.987182617188	44.87664413452148	-135.3659057617188	-1086.9228515625	46.02089309692383	-162.4389953613281	-1166.091796875	31.00046730041504	-265.0874328613281	-1000.000427246094	36.88692092895508	-362.6610107421875	
480	4.79	-903.8096923828125	1059.076416015625	-425.0408325195312	-796.217529296875	1052.2568359375	-368.07861328125	-850.3983764648438	1093.657470703125	-397.1985168457031	-964.74755859375	1302.069091796875	-157.7785949707031	-821.8524780273438	1253.107543945312	-423.2738952636719	-840.5604248046875	1520.944213867188	-352.2638244628906	-941.82421875	1415.792358398438	-176.8138275146484	-904.6173095703125	1348.570190429688	-467.6719360351562	-749.8139038085938	1498.480834960938	-311.123291015625	-719.2665405273438	1483.845581054688	-205.8014221191406	-630.9956665039062	1358.680419921875	-210.0287017822266	-598.9755249023438	1144.507934570312	-211.3551635742188	-643.0942993164062	1131.689086914062	-288.0896606445312	-654.002197265625	901.4771728515625	-139.6070404052734	-583.5640869140625	890.9464721679688	-198.4151611328125	-581.9293212890625	1035.359375	-201.0537567138672	-661.9118041992188	714.69775390625	-151.7169189453125	-589.6129150390625	819.9046020507812	-185.9570465087891	-633.8731689453125	822.3447875976562	-128.3495330810547	-1026.174560546875	1505.567260742188	-385.9350891113281	-1073.940185546875	1444.828491210938	-442.4852905273438	-1126.07763671875	1169.8310546875	-520.00341796875	-1045.82373046875	1149.665893554688	-468.6436157226562	-1219.794189453125	947.7821044921875	-403.202880859375	-1210.875122070312	930.3053588867188	-490.7294921875	-1163.291259765625	1099.111572265625	-514.081787109375	-1226.935546875	760.6859741210938	-377.6126098632812	-1253.551025390625	856.68603515625	-389.2343444824219	-1235.121459960938	849.4019165039062	-467.8141784667969	-951.0020141601562	1688.458618164062	-314.3100891113281	-856.0060424804688	1712.502197265625	-119.5474166870117	-981.0399169921875	1723.0791015625	-144.1457366943359	-815.6489868164062	1686.054931640625	-293.229248046875	-731.647705078125	982.818603515625	-227.8995513916016	-1084.786254882812	1022.930419921875	-342.9073181152344	-1070.69873046875	1047.151245117188	-245.6947174072266	-835.3850708007812	1026.77880859375	-138.5414276123047	-829.0846557617188	483.1998596191406	-121.0766906738281	-796.4539184570312	628.1765747070312	-141.0670013427734	-715.3511352539062	218.9860382080078	-497.9462585449219	-768.6250610351562	339.2164001464844	-295.8285217285156	-799.3653564453125	63.06130218505859	-373.9024658203125	-824.031494140625	96.08786010742188	-427.041259765625	-708.7027587890625	137.3057250976562	-418.1482543945312	-763.6395263671875	256.7698364257812	-556.5995483398438	-1109.315307617188	522.2198486328125	-258.8671264648438	-1131.292724609375	795.7377319335938	-277.5641174316406	-1083.55908203125	31.57977485656738	-348.1079406738281	-1105.54833984375	397.8218078613281	-241.9720916748047	-1150.032836914062	44.30855178833008	-134.7932434082031	-1086.8896484375	45.62586975097656	-162.0483245849609	-1166.037231445312	31.15048599243164	-265.0346984863281	-999.6557006835938	37.06558227539062	-362.234375	
481	4.8	-909.550048828125	1059.902587890625	-418.5815734863281	-801.3184204101562	1053.296020507812	-363.2076110839844	-856.22802734375	1094.543090820312	-391.4107971191406	-967.1033325195312	1302.478149414062	-149.7950134277344	-828.627197265625	1254.279541015625	-417.8275146484375	-846.1972045898438	1522.017944335938	-345.8523559570312	-944.5377807617188	1416.289306640625	-168.9109497070312	-912.20703125	1349.794189453125	-460.5233459472656	-754.6443481445312	1499.624877929688	-306.4552307128906	-722.4801635742188	1484.463134765625	-201.5453948974609	-634.3473510742188	1359.247436523438	-207.5948944091797	-602.4418334960938	1144.980590820312	-209.4101104736328	-647.94384765625	1132.230834960938	-285.2539672851562	-657.7393188476562	903.0819702148438	-134.3822784423828	-588.8550415039062	891.181396484375	-194.7983856201172	-585.8847045898438	1035.698364257812	-198.7237091064453	-667.9677124023438	716.3836669921875	-144.0503997802734	-595.5147705078125	820.2953491210938	-181.4569854736328	-638.1624145507812	823.9244995117188	-122.746467590332	-1032.36279296875	1506.613647460938	-376.3118591308594	-1081.283569335938	1446.126342773438	-432.1593017578125	-1135.392944335938	1170.984985351562	-508.7042236328125	-1053.64599609375	1151.044067382812	-459.3811340332031	-1227.574096679688	950.1090087890625	-388.4933166503906	-1220.509765625	931.887939453125	-476.0485534667969	-1172.6943359375	1100.328979492188	-501.6596069335938	-1234.90380859375	763.2801513671875	-361.2210083007812	-1261.354614257812	859.2890625	-373.0806579589844	-1244.528442382812	851.2474975585938	-451.9408874511719	-956.1458740234375	1689.337280273438	-305.3875427246094	-858.2280883789062	1712.804443359375	-111.9711303710938	-983.67431640625	1723.232666015625	-134.6179351806641	-820.4270629882812	1687.12841796875	-286.4006042480469	-734.6315307617188	984.3811645507812	-223.4304809570312	-1089.293212890625	1022.771850585938	-334.6778259277344	-1074.716430664062	1047.291870117188	-237.4659729003906	-837.7545776367188	1027.783325195312	-133.2142791748047	-834.8811645507812	486.4726257324219	-106.1904296875	-800.7184448242188	630.9764404296875	-129.2683258056641	-731.5451049804688	211.4430999755859	-478.6643676757812	-779.5579833984375	337.4562072753906	-278.8658447265625	-816.1441040039062	62.6009407043457	-346.8074645996094	-840.961181640625	93.42982482910156	-401.1509704589844	-724.9840087890625	133.0131988525391	-395.6664733886719	-780.1796875	247.7202758789062	-537.9922485351562	-1110.799194335938	521.5455322265625	-255.5672607421875	-1134.339111328125	795.279052734375	-270.6577453613281	-1083.262939453125	32.02632522583008	-347.8007507324219	-1106.357421875	397.1126098632812	-239.4567718505859	-1150.082397460938	43.86688232421875	-134.3098754882812	-1086.867797851562	45.30098724365234	-161.7198181152344	-1165.994018554688	31.27409744262695	-264.9911804199219	-999.3989868164062	37.25611114501953	-361.894287109375	
482	4.81	-915.1612548828125	1060.666870117188	-412.077880859375	-806.1754760742188	1054.387084960938	-358.2767028808594	-861.9347534179688	1095.361450195312	-385.5682983398438	-969.349853515625	1302.778198242188	-141.8544921875	-835.301513671875	1255.321044921875	-412.3280639648438	-851.7225341796875	1522.986328125	-339.3697814941406	-947.1171264648438	1416.687133789062	-161.0013122558594	-919.6984252929688	1350.946655273438	-453.301513671875	-759.4030151367188	1500.669555664062	-301.6900634765625	-725.6409912109375	1484.93505859375	-197.2621002197266	-637.7250366210938	1359.634521484375	-205.1670989990234	-606.0657958984375	1145.273681640625	-207.5320129394531	-652.8987426757812	1132.673950195312	-282.4611206054688	-661.6488037109375	904.552001953125	-129.1872863769531	-594.3739013671875	891.2534790039062	-191.1407012939453	-590.0219116210938	1035.859008789062	-196.4322204589844	-674.1578369140625	717.9674682617188	-136.3932647705078	-601.5936889648438	820.5562133789062	-176.8834533691406	-642.6222534179688	825.3654174804688	-117.1640090942383	-1038.401489257812	1507.56591796875	-366.6236267089844	-1088.493041992188	1447.381103515625	-421.76611328125	-1144.46826171875	1172.052368164062	-497.3356323242188	-1061.276245117188	1152.39208984375	-450.019775390625	-1235.029296875	952.31494140625	-373.8302001953125	-1229.825927734375	933.3986206054688	-461.3781433105469	-1181.842041015625	1101.46533203125	-489.1809692382812	-1242.486694335938	765.758544921875	-344.952880859375	-1268.78076171875	861.7769165039062	-357.003173828125	-1253.58056640625	853.0154418945312	-436.1145935058594	-961.0723876953125	1690.131958007812	-296.4309387207031	-860.1982421875	1712.982788085938	-104.424560546875	-986.0332641601562	1723.329345703125	-125.0935211181641	-825.008056640625	1688.0498046875	-279.5610656738281	-737.586181640625	985.8773803710938	-218.94482421875	-1093.628784179688	1022.550170898438	-326.405517578125	-1078.581298828125	1047.3427734375	-229.2282104492188	-840.0660400390625	1028.688232421875	-127.8561553955078	-840.1812133789062	489.8290710449219	-91.55772399902344	-804.5656127929688	633.8692016601562	-117.601318359375	-747.7785034179688	203.1275024414062	-458.6587829589844	-790.1707763671875	335.3601684570312	-261.6893920898438	-832.0835571289062	61.86259078979492	-318.7849731445312	-857.292236328125	90.33563232421875	-374.1464233398438	-740.8614501953125	128.2239837646484	-372.5370483398438	-796.9984130859375	237.7389221191406	-518.5045776367188	-1112.302124023438	520.904541015625	-252.3131866455078	-1137.3115234375	794.91943359375	-263.6317443847656	-1083.041015625	32.45883941650391	-347.5549011230469	-1107.167602539062	396.4176330566406	-236.9611511230469	-1150.143432617188	43.53197860717773	-133.9080200195312	-1086.859130859375	45.04238891601562	-161.4486846923828	-1165.966674804688	31.37006759643555	-264.9606018066406	-999.2452392578125	37.44838333129883	-361.6553039550781	
